<svg version="1" xmlns="http://www.w3.org/2000/svg" width="666.667" height="666.667" viewBox="0 0 500.000000 500.000000"><path d="M315.5 94.4c-3.8 1.3-12.1 3.6-18.4 5-12.8 3-32 9.9-52.3 18.7-17.6 7.6-36.8 14.1-53.4 17.8-29.8 6.8-40.2 12.9-44 25.8-1.4 4.7-1.9 5.3-4.2 5.4-3.3.1-7.7.8-11.7 1.8l-3 .7.2 7.7c.1 7.5-.6 9.4-2.5 6.1-1.1-2-.1-2.1-31.7 3.5-25.2 4.5-27.1 4.8-33 5.6-2.2.4-5.1.8-6.5 1-1.4.3-5 .7-8 1-3 .3-6.4.8-7.5 1-1.1.2-6.5.7-12 1.1-12.9.9-16.2 2.1-20.2 7.3C1.4 211.5.5 217.7.5 249c.1 61.2 5.7 88.6 20.7 101.5 13.5 11.5 72.5 34.1 132.3 50.6 21 5.8 24.1 6.4 35.5 6.4 9.8 0 6.7 1.3 42-17.7 19.5-10.5 22.1-11.7 28-12.2 24-2.2 39.7-7.4 57.2-18.9 4.6-2.9 10.9-7.8 14.1-10.7 4.9-4.4 5.7-4.9 5.2-2.9-5 21.1.3 35 15.1 39.5 9.8 2.9 18 1.1 30.2-6.9 4-2.6 8-4.7 9-4.7 3.9 0 9.5-2.3 12.8-5.2 5.9-5.2 7.2-9.1 9.4-28 1.3-10.5 2.5-17.5 3.3-18 .6-.4 2.4-.8 3.8-.8 3.8 0 14.7-5.8 17.1-9.1 1.2-1.6 2.9-2.9 3.7-2.9 2.7-.1 9.6-3.6 13.2-6.8l3.5-3 3.9 3.4c8.4 7.3 19.2 11.8 31.3 13 5.6.6 5.9.5 6.5-1.7 1.4-5.1 1.3-5.3-9.8-7.4-12.2-2.3-22.7-8.1-25.9-14.4-1.1-2-1.2-3.9-.5-7.6 1.5-8.1-2.2-20-7.5-24.5-.9-.7-1.6-2.3-1.6-3.7 0-3.3-3.4-9.7-6.4-12-1.7-1.4-2.7-3.6-3.4-7.4-.6-3-.7-5.7-.4-6 .4-.4 2.4-1.2 4.4-1.9 2.1-.6 4-1.5 4.2-1.8.3-.6-2.7-14.6-5.5-25-1.3-4.6-3.7-5.5-7.5-2.7-3 2.3-4.2 1.8-5.4-2.3-4.4-13.6-14.3-32.6-21.5-41-1.1-1.2-1.9-2.4-1.7-2.5.1-.1-.5-2.6-1.3-5.5-4.2-14.1-18.2-32.1-29.1-37.6-2.2-1.1-5.3-3-7.1-4.3-3.6-2.6-9.6-4.1-23.8-5.8-6.1-.8-5.8-1.9.7-3 5.1-.9 4-2.1-2.5-3-2.8-.4-6.1-.9-7.1-1.1-1-.2-5.3-.6-9.5-.8-6.2-.5-8.9-.1-14.6 1.8zm39.9 17.4c5.8 3.9 14.1 12.7 18.7 19.8 3.7 5.8 7.9 15.6 7.9 18.7 0 .8-1.9 4.3-4.1 7.8-2.3 3.5-7.5 12.7-11.6 20.4-7.4 13.7-21.4 35.6-27.1 42.4l-2.9 3.5-7.3-4.8c-17.2-11.4-37.2-17.8-62.5-20.1-3.8-.3-8.1-.8-9.5-1-1.4-.2-6.5-.7-11.5-1-4.9-.3-11.2-.8-14-1-2.7-.3-8.1-.7-12-1.1-3.8-.3-7.2-.7-7.5-.9-.3-.2-3-.6-6-.9-13.1-1.5-15.6-1.9-17.1-2.7-1.5-.7-3.9-9.3-4.3-15.1-.3-3 1.3-7.7 3.6-11 3.1-4.4 15.6-9.4 28.3-11.3 12.9-1.8 17.7-2.9 26.3-5.6 9.2-2.9 21.5-8.6 29.2-13.4 7-4.4 28.6-15.4 36.2-18.4 9.1-3.6 23.6-7.8 31-8.9 6-1 9.7.1 16.2 4.6zm48.6 81.4c1.2 1.2 3.7 5.3 5.5 9.2 5.1 11.3 11.1 29.5 9.7 29.7-.4 0-1.6.2-2.7.4s-6 .9-11 1.5c-4.9.7-9.6 1.4-10.4 1.5-1.4.2-18.3-3-20.8-4-.8-.3 1.7-5 7.1-13.2 4.6-7 9.1-14.4 10.1-16.3 3.4-6.6 6.8-11 8.4-11 1 0 2.8 1 4.1 2.2zm-24.7 49.4c7.7 1.6 8.7 2.1 8.5 3.8-.4 2.9-13.9 6.3-18.4 4.7-1.7-.6-4.6-.8-6.4-.4-3.9.7-3.8.1.5-6.7 2.1-3.3 3.1-4.1 4.8-3.7 1.2.3 6.2 1.3 11 2.3zm72.4 49.6c.4 1.3-.1 1.7-2.6 1.6-1.8-.1-3.4-.4-3.6-.8-.3-.4.3-2.9 1.2-5.5l1.6-4.7 1.4 3.8c.8 2.2 1.7 4.7 2 5.6z"/></svg>